<?xml version="1.0" encoding="UTF-8"?><svg id="Layer_1" xmlns="http://www.w3.org/2000/svg" viewBox="0 0 24 24"><defs><style>.cls-1{fill:#faae1c;}</style></defs><path class="cls-1" d="m22.59,13.83c-.78,0-1.41.63-1.41,1.41v3.73c0,.96-.52,1.57-.88,1.57H3.7c-.36,0-.88-.61-.88-1.57v-3.73c0-.78-.63-1.41-1.41-1.41s-1.41.63-1.41,1.41v3.73c0,2.42,1.66,4.39,3.7,4.39h16.59c2.04,0,3.7-1.97,3.7-4.39v-3.73c0-.78-.63-1.41-1.41-1.41Z"/><path class="cls-1" d="m1.41,3.59h6.05c.33,0,.59.26.59.59v2.98c-.19-.02-.39-.04-.59-.04h-3.17c-.75,0-1.41.57-1.46,1.32-.05.82.6,1.51,1.41,1.51h3.22c.14,0,.27.01.37.03.13.02.22.13.22.26v5.02c0,.75.57,1.41,1.32,1.46.82.05,1.51-.6,1.51-1.41V4.18c0-1.88-1.53-3.41-3.41-3.41H1.46c-.75,0-1.41.57-1.46,1.32-.05.82.6,1.51,1.41,1.51Z"/><path class="cls-1" d="m14.64,16.72c.75-.05,1.32-.71,1.32-1.46v-5.02c0-.13.09-.24.22-.26.1-.02.23-.03.37-.03h3.17c.75,0,1.41-.57,1.46-1.32.05-.82-.6-1.51-1.41-1.51h-3.22c-.2,0-.4.01-.59.04v-2.98c0-.33.26-.59.59-.59h6c.75,0,1.41-.57,1.46-1.32.05-.82-.6-1.51-1.41-1.51h-6.05c-1.88,0-3.41,1.53-3.41,3.41v11.13c0,.81.68,1.46,1.51,1.41Z"/></svg>